<svg fill="none" height="79" viewBox="0 0 176 79" width="176" xmlns="http://www.w3.org/2000/svg" xmlns:xlink="http://www.w3.org/1999/xlink"><clipPath id="a"><path d="m12 .924805h58.5037v55h-58.5037z"/></clipPath><g fill="#464648"><path d="m8.53736 73.7782c-2.45695 0-4.41134-.672-5.86318-2.016-1.45183-1.3627-2.177751-3.304-2.177751-5.824v-4.704c0-2.52.725921-4.452 2.177751-5.796 1.45184-1.3627 3.40623-2.044 5.86318-2.044 2.45694 0 4.41134.6813 5.86314 2.044 1.4519 1.344 2.1778 3.276 2.1778 5.796v4.704c0 2.52-.7259 4.4613-2.1778 5.824-1.4518 1.344-3.4062 2.016-5.86314 2.016zm0-3.304c1.37738 0 2.44764-.4013 3.21074-1.204.7632-.8027 1.1448-1.876 1.1448-3.22v-4.928c0-1.344-.3816-2.4173-1.1448-3.22-.7631-.8027-1.83336-1.204-3.21074-1.204-1.35877 0-2.42903.4013-3.21079 1.204-.76314.8027-1.14471 1.876-1.14471 3.22v4.928c0 1.344.38157 2.4173 1.14471 3.22.78176.8027 1.85202 1.204 3.21079 1.204z"/><path d="m19.3642 78.9862v-19.488h3.462v1.68h.5026c.3164-.5413.8097-1.0173 1.4797-1.428.6701-.4293 1.6287-.644 2.8758-.644 1.1168 0 2.1498.28 3.0991.84.9493.5413 1.7124 1.344 2.2894 2.408s.8656 2.352.8656 3.864v.448c0 1.512-.2886 2.8-.8656 3.864s-1.3401 1.876-2.2894 2.436c-.9493.5413-1.9823.812-3.0991.812-.8376 0-1.5449-.1027-2.1219-.308-.5584-.1867-1.0144-.4293-1.3681-.728-.335-.3173-.6049-.6347-.8097-.952h-.5025v7.196zm7.2591-8.288c1.0982 0 2.001-.3453 2.7083-1.036.7259-.7093 1.0888-1.736 1.0888-3.08v-.28c0-1.344-.3629-2.3613-1.0888-3.052-.7259-.7093-1.6287-1.064-2.7083-1.064-1.0795 0-1.9823.3547-2.7082 1.064-.7259.6907-1.0889 1.708-1.0889 3.052v.28c0 1.344.363 2.3707 1.0889 3.08.7259.6907 1.6287 1.036 2.7082 1.036z"/><path d="m42.92 73.7782c-1.3773 0-2.5965-.2893-3.6575-.868-1.0423-.5973-1.8613-1.428-2.4569-2.492-.577-1.0827-.8655-2.352-.8655-3.808v-.336c0-1.456.2885-2.716.8655-3.78.577-1.0827 1.3867-1.9133 2.429-2.492 1.0424-.5973 2.2522-.896 3.6296-.896 1.3588 0 2.5407.308 3.5458.924 1.0052.5973 1.7869 1.4373 2.3453 2.52.5584 1.064.8376 2.3053.8376 3.724v1.204h-10.0791c.0373.952.3909 1.7267 1.061 2.324s1.489.896 2.4569.896c.9865 0 1.7124-.2147 2.1778-.644.4653-.4293.819-.9053 1.0609-1.428l2.8758 1.512c-.2606.4853-.6422 1.0173-1.1447 1.596-.484.56-1.1354 1.0453-1.9544 1.456-.819.392-1.8614.588-3.1271.588zm-3.3783-8.932h6.4775c-.0745-.8027-.4002-1.4467-.9772-1.932-.5584-.4853-1.2937-.728-2.2057-.728-.9493 0-1.7031.2427-2.2615.728s-.9028 1.1293-1.0331 1.932z"/><path d="m52.1657 73.3862v-13.888h3.462v1.82h.5026c.2234-.4853.6422-.9427 1.2564-1.372.6142-.448 1.5449-.672 2.792-.672 1.0796 0 2.0195.252 2.8199.756.819.4853 1.4518 1.1667 1.8985 2.044.4468.8587.6701 1.8667.6701 3.024v8.288h-3.5179v-8.008c0-1.0453-.2606-1.8293-.7817-2.352-.5026-.5227-1.2285-.784-2.1778-.784-1.0796 0-1.9172.364-2.5128 1.092-.5956.7093-.8934 1.708-.8934 2.996v7.056z"/><path d="m70.2637 73.3862-2.5687-19.6h3.6575l1.8986 17.024h.5025l2.457-17.024h6.3657l2.457 17.024h.5025l1.8986-17.024h3.6575l-2.5686 19.6h-6.3658l-2.5128-17.416h-.5025l-2.5128 17.416z"/><path d="m99.484 73.7782c-1.3774 0-2.5965-.2893-3.6575-.868-1.0423-.5973-1.8613-1.428-2.457-2.492-.577-1.0827-.8655-2.352-.8655-3.808v-.336c0-1.456.2885-2.716.8655-3.78.5771-1.0827 1.3867-1.9133 2.4291-2.492 1.0423-.5973 2.2522-.896 3.6296-.896 1.3588 0 2.5408.308 3.5458.924 1.005.5973 1.787 1.4373 2.345 2.52.559 1.064.838 2.3053.838 3.724v1.204h-10.0792c.0372.952.3908 1.7267 1.0609 2.324s1.4891.896 2.457.896c.9863 0 1.7123-.2147 2.1773-.644.466-.4293.819-.9053 1.061-1.428l2.876 1.512c-.26.4853-.642 1.0173-1.145 1.596-.484.56-1.135 1.0453-1.954 1.456-.819.392-1.861.588-3.127.588zm-3.3783-8.932h6.4773c-.074-.8027-.4-1.4467-.977-1.932-.558-.4853-1.294-.728-2.2058-.728-.9492 0-1.7031.2427-2.2615.728s-.9027 1.1293-1.033 1.932z"/><path d="m128.608 73.3862c-.912 0-1.656-.28-2.233-.84-.559-.5787-.838-1.344-.838-2.296v-7.84h-3.462v-2.912h3.462v-4.312h3.518v4.312h3.797v2.912h-3.797v7.224c0 .56.261.84.782.84h2.68v2.912z"/><path d="m135.478 73.3862v-19.6h3.518v7.42h.503c.149-.2987.381-.5973.698-.896.316-.2987.735-.5413 1.256-.728.54-.2053 1.219-.308 2.038-.308 1.08 0 2.02.252 2.82.756.819.4853 1.452 1.1667 1.899 2.044.446.8587.67 1.8667.67 3.024v8.288h-3.518v-8.008c0-1.0453-.261-1.8293-.782-2.352-.502-.5227-1.228-.784-2.178-.784-1.079 0-1.917.364-2.512 1.092-.596.7093-.894 1.708-.894 2.996v7.056z"/><path d="m158.434 73.7782c-1.377 0-2.596-.2893-3.657-.868-1.043-.5973-1.862-1.428-2.457-2.492-.577-1.0827-.866-2.352-.866-3.808v-.336c0-1.456.289-2.716.866-3.78.577-1.0827 1.386-1.9133 2.429-2.492 1.042-.5973 2.252-.896 3.629-.896 1.359 0 2.541.308 3.546.924 1.005.5973 1.787 1.4373 2.346 2.52.558 1.064.837 2.3053.837 3.724v1.204h-10.079c.037.952.391 1.7267 1.061 2.324s1.489.896 2.457.896c.986 0 1.712-.2147 2.178-.644.465-.4293.819-.9053 1.061-1.428l2.875 1.512c-.26.4853-.642 1.0173-1.144 1.596-.484.56-1.136 1.0453-1.955 1.456-.819.392-1.861.588-3.127.588zm-3.378-8.932h6.477c-.074-.8027-.4-1.4467-.977-1.932-.558-.4853-1.293-.728-2.206-.728-.949 0-1.703.2427-2.261.728s-.903 1.1293-1.033 1.932z"/><path d="m167.68 73.3862v-13.888h3.462v1.568h.503c.204-.56.539-.9707 1.005-1.232.484-.2613 1.042-.392 1.675-.392h1.675v3.136h-1.731c-.893 0-1.629.2427-2.206.728-.577.4667-.865 1.1947-.865 2.184v7.896z"/></g><g clip-path="url(#a)" fill="#eb6d4a"><path d="m64.7337 31.0703c-.671-.0275-1.3475 0-2.024 0-2.75 0-2.75 0-2.6895-2.794.1175-3.2312-.4644-6.4497-1.7061-9.4351-1.2416-2.9855-3.1136-5.6675-5.4879-7.8624v-.0275l-.495-.44c-2.473-2.1692-5.3915-3.76992-8.55-4.68942s-6.4802-1.13543-9.7311-.63258-6.3521 1.71224-9.0852 3.54304c-2.7331 1.83076-5.0316 4.23846-6.7337 7.05346l-.0385.0605c-.1155.198-.2365.396-.3465.594-2.1904 3.8737-3.1765 8.3123-2.8325 12.749.044.737.55 1.826-.946 1.9305-1.2925.088-2.2605.7315-2.035 2.2s1.353 1.65 2.6125 1.65c1.9525-.0385 3.9105 0 5.863 0 1.254 0 2.156.506 2.2 1.8315.0385 1.199-.726 1.8645-1.9085 1.881-1.4685 0-2.4255.6765-2.31 2.156s1.3255 1.65 2.574 1.617c3.5035-.0275 7.007-.033 10.516 0 1.2925 0 2.2495.55 2.1725 2.0515-.0715 1.3695-.957 1.804-2.2 1.7985-2.156 0-4.312 0-6.4735 0-1.3695 0-2.7115.0715-2.717 1.87s1.353 1.859 2.717 1.8535h21.8405 9.504c1.287 0 2.354-.2365 2.3925-1.771.044-1.65-1.1-1.98-2.442-1.947-.55 0-1.1 0-1.617 0h-9.7075c-1.2705 0-2.112-.55-2.1505-1.87s.836-1.892 2.068-1.98c.4015-.033.8085 0 1.21 0 1.232 0 2.3815-.1375 2.4805-1.694.11-1.65-.99-2.0405-2.354-2.046-1.243-.066-1.9635-.792-1.9635-1.892 0-1.2485.8195-1.925 2.134-1.8865h2.431 15.774c1.3255 0 2.277-.418 2.321-1.8975s-1.001-1.9195-2.266-1.9745z"/><circle cx="63.9501" cy="40.562" r="1.85432"/><circle cx="68.6259" cy="40.562" r="1.85432"/><path d="m63.7603 38.7077h4.98122v3.70865h-4.98122z"/><circle cx="53.0244" cy="40.562" r="1.85432"/><circle cx="57.7002" cy="40.562" r="1.85432"/><path d="m52.8346 38.7077h4.98122v3.70865h-4.98122z"/></g><path d="m113.629 73.7334c-.986 0-1.87-.168-2.652-.504-.782-.3547-1.406-.8587-1.871-1.512-.447-.672-.67-1.484-.67-2.436s.223-1.7453.67-2.38c.465-.6533 1.098-1.1387 1.899-1.456.819-.336 1.749-.504 2.792-.504h3.797v-.784c0-.6533-.205-1.1853-.614-1.596-.41-.4293-1.061-.644-1.955-.644-.875 0-1.526.2053-1.954.616-.428.392-.708.9053-.838 1.54l-3.239-1.092c.224-.7093.577-1.3533 1.061-1.932.503-.5973 1.164-1.0733 1.983-1.428.837-.3733 1.852-.56 3.043-.56 1.824 0 3.267.4573 4.328 1.372s1.591 2.24 1.591 3.976v5.18 1.064 1.064 1.624h-.447c-.688 0-1.823-.028-2.373-.028 0-.476 0-1.26 0-1.82v-.028h-.53c-.075.224-.242.5227-.503.896-.261.3547-.67.672-1.228.952-.559.28-1.322.42-2.29.42zm.614-2.856c.987 0 1.787-.2707 2.401-.812.633-.56.95-1.2973.95-2.212v-.28h-3.546c-.652 0-1.163.14-1.536.42-.372.28-.558.672-.558 1.176s.195.9147.586 1.232.959.476 1.703.476z" fill="#464648"/></svg>