<?xml version="1.0" encoding="UTF-8" standalone="no"?>
<svg
   id="vector"
   width="108"
   height="108"
   viewBox="0 0 24 24"
   version="1.1"
   sodipodi:docname="weather_alert_icon_app copy.svg"
   inkscape:version="1.4 (e7c3feb1, 2024-10-09)"
   inkscape:export-filename="weather_alert_icon_app copy.png"
   inkscape:export-xdpi="533.33331"
   inkscape:export-ydpi="533.33331"
   xmlns:inkscape="http://www.inkscape.org/namespaces/inkscape"
   xmlns:sodipodi="http://sodipodi.sourceforge.net/DTD/sodipodi-0.dtd"
   xmlns="http://www.w3.org/2000/svg"
   xmlns:svg="http://www.w3.org/2000/svg">
  <defs
     id="defs1" />
  <sodipodi:namedview
     id="namedview1"
     pagecolor="#505050"
     bordercolor="#eeeeee"
     borderopacity="1"
     inkscape:showpageshadow="0"
     inkscape:pageopacity="0"
     inkscape:pagecheckerboard="0"
     inkscape:deskcolor="#505050"
     inkscape:zoom="8.1296296"
     inkscape:cx="54"
     inkscape:cy="44.159453"
     inkscape:window-width="1920"
     inkscape:window-height="1027"
     inkscape:window-x="0"
     inkscape:window-y="25"
     inkscape:window-maximized="1"
     inkscape:current-layer="vector" />
  <path
     fill="#4382ff"
     d="m14.967,15.304c3.2,0 6,-2.41 6,-5.5 0,-3.09 -2.6,-5.5 -5.8,-5.5 -3.2,0 -5.8,2.41 -5.8,5.5 -0.6,-1.45 -2.4,-2.51 -4.2,-2.51 -2.3,0 -4.2,1.74 -4.2,3.96 0,2.22 1.7,4.05 4,4.05"
     id="path_0" />
  <path
     fill="#8fe4ff"
     fill-rule="evenodd"
     d="m9.428,14.51c-0.595,0 -1.062,0.3 -1.269,0.789 -0.215,0.509 -0.801,0.747 -1.31,0.532 -0.509,-0.215 -0.747,-0.801 -0.532,-1.31 0.554,-1.311 1.806,-2.011 3.111,-2.011 1.927,0 3.38,1.594 3.38,3.5 0,1.906 -1.453,3.5 -3.38,3.5h-7.62c-0.552,0 -1,-0.448 -1,-1 0,-0.552 0.448,-1 1,-1h7.62c0.733,0 1.38,-0.606 1.38,-1.5 0,-0.894 -0.647,-1.5 -1.38,-1.5z"
     id="path_1" />
  <path
     fill="#8fe4ff"
     fill-rule="evenodd"
     d="m15.998,18.43c-0.538,0 -1.061,0.354 -1.287,0.829 -0.237,0.499 -0.834,0.711 -1.332,0.474 -0.499,-0.237 -0.711,-0.834 -0.474,-1.332 0.534,-1.125 1.731,-1.971 3.093,-1.971 1.927,0 3.38,1.594 3.38,3.5 0,1.906 -1.453,3.5 -3.38,3.5H5.378c-0.552,0 -1,-0.448 -1,-1 0,-0.552 0.448,-1 1,-1H15.998c0.733,0 1.38,-0.606 1.38,-1.5 0,-0.894 -0.647,-1.5 -1.38,-1.5z"
     id="path_2" />
  <path
     fill="#00000000"
     d="m18.146,2.914v3"
     stroke-width="1"
     stroke="#F0BBB6E2"
     stroke-linejoin="round"
     id="path_4" />
  <path
     fill="#00000000"
     d="m18.146,7.914h0.01"
     stroke-width="1"
     stroke="#F0BBB6E2"
     stroke-linecap="round"
     stroke-linejoin="round"
     id="path_5" />
  <path
     d="m 20.075933,5.8428234 q 0.154266,0 0.258635,-0.1043617 0.104363,-0.1043617 0.104363,-0.2586353 0,-0.1542729 -0.104363,-0.2586354 -0.104364,-0.1043617 -0.258635,-0.1043617 -0.154282,0 -0.258636,0.1043617 -0.104363,0.1043617 -0.104363,0.2586354 0,0.1542744 0.104363,0.2586353 0.104363,0.1043617 0.258636,0.1043617 z M 19.712935,4.3908359 h 0.725994 V 2.2128546 h -0.725994 z m 0.362998,3.2669719 q -0.753219,0 -1.415689,-0.2858599 Q 17.997776,7.0860877 17.507729,6.596042 17.017684,6.1059961 16.731824,5.4435269 16.445964,4.7810576 16.445964,4.027839 q 0,-0.7532186 0.28586,-1.4156879 0.28586,-0.6624692 0.775905,-1.1525151 0.490047,-0.49004567 1.152515,-0.77590594 0.66247,-0.28585998 1.415689,-0.28585998 0.753218,0 1.415687,0.28585998 0.66247,0.28586027 1.152515,0.77590594 0.490047,0.4900459 0.775907,1.1525151 0.28586,0.6624693 0.28586,1.4156879 0,0.7532186 -0.28586,1.4156879 -0.28586,0.6624692 -0.775907,1.1525151 -0.490045,0.4900457 -1.152515,0.7759059 -0.662469,0.2858599 -1.415687,0.2858599 z m 0,-0.7259937 q 1.21604,0 2.060007,-0.8439678 0.843968,-0.8439678 0.843968,-2.0600073 0,-1.2160395 -0.843968,-2.0600073 -0.843967,-0.8439678 -2.060007,-0.8439678 -1.216039,0 -2.060007,0.8439678 -0.843968,0.8439678 -0.843968,2.0600073 0,1.2160395 0.843968,2.0600073 0.843968,0.8439678 2.060007,0.8439678 z m 0,-2.9039751 z"
     id="path1"
     style="stroke-width:0.00907492" />
</svg>
