<?xml version="1.0" encoding="UTF-8" standalone="no"?>
<svg
   width="108"
   height="108"
   viewBox="0 0 108 108"
   fill="none"
   data-reactroot=""
   version="1.1"
   id="svg3"
   sodipodi:docname="alert-large.svg"
   inkscape:version="1.4 (e7c3feb1, 2024-10-09)"
   inkscape:export-filename="cloud-breeze---filled-(24x24)@3x.svg"
   inkscape:export-xdpi="165.34286"
   inkscape:export-ydpi="165.34286"
   xmlns:inkscape="http://www.inkscape.org/namespaces/inkscape"
   xmlns:sodipodi="http://sodipodi.sourceforge.net/DTD/sodipodi-0.dtd"
   xmlns="http://www.w3.org/2000/svg"
   xmlns:svg="http://www.w3.org/2000/svg">
  <defs
     id="defs3" />
  <sodipodi:namedview
     id="namedview3"
     pagecolor="#ffffff"
     bordercolor="#000000"
     borderopacity="0.25"
     inkscape:showpageshadow="2"
     inkscape:pageopacity="0.0"
     inkscape:pagecheckerboard="0"
     inkscape:deskcolor="#d1d1d1"
     inkscape:zoom="2.741988"
     inkscape:cx="104.66858"
     inkscape:cy="-8.0233758"
     inkscape:window-width="1920"
     inkscape:window-height="1027"
     inkscape:window-x="0"
     inkscape:window-y="25"
     inkscape:window-maximized="1"
     inkscape:current-layer="svg3" />
  <path
     fill="#4382ff"
     d="m 65.467178,66.904968 c 12.8,0 24,-9.64 24,-22 0,-12.36 -10.4,-22 -23.2,-22 -12.8,0 -23.200002,9.64 -23.200002,22 -2.4,-5.8 -9.6,-10.04 -16.8,-10.04 -9.2,0 -16.7999999,6.96 -16.7999999,15.84 0,8.88 6.7999999,16.2 15.9999999,16.2"
     undefined="1"
     id="path1"
     style="stroke-width:4" />
  <path
     fill="#8fe4ff"
     d="m 43.31152,63.726684 c -2.3784,0 -4.24988,1.2016 -5.075,3.156 -0.85928,2.0352 -3.20572,2.9884 -5.24088,2.1288 -2.03516,-0.8592 -2.9884,-3.2056 -2.12912,-5.2408 2.21488,-5.2456 7.22348,-8.044 12.445,-8.044 7.709198,0 13.519998,6.3756 13.519998,14 0,7.6244 -5.8108,14 -13.519998,14 H 12.831519 c -2.20912,0 -3.9999998,-1.7908 -3.9999998,-4 0,-2.2092 1.7908798,-4 3.9999998,-4 H 43.31152 c 2.930798,0 5.519998,-2.4244 5.519998,-6 0,-3.5756 -2.5892,-6 -5.519998,-6 z"
     clip-rule="evenodd"
     fill-rule="evenodd"
     undefined="1"
     id="path2"
     style="stroke-width:4" />
  <path
     fill="#8fe4ff"
     d="m 69.59061,79.408856 c -2.1516,0 -4.2436,1.4144 -5.1468,3.3164 -0.948,1.9952 -3.334,2.8444 -5.3296,1.8968 -1.9952,-0.948 -2.8444,-3.334 -1.8968,-5.3296 2.1368,-4.498 6.9248,-7.8836 12.3732,-7.8836 7.7092,0 13.52,6.3756 13.52,14 0,7.6244 -5.8108,14 -13.52,14 H 27.110608 c -2.20912,0 -4,-1.7908 -4,-4 0,-2.2092 1.79088,-4 4,-4 H 69.59061 c 2.9308,0 5.52,-2.4244 5.52,-6 0,-3.5756 -2.5892,-6 -5.52,-6 z"
     clip-rule="evenodd"
     fill-rule="evenodd"
     undefined="1"
     id="path3"
     style="stroke-width:4" />
  <path
     stroke-linejoin="round"
     stroke-linecap="round"
     stroke-miterlimit="10"
     stroke-width="4"
     stroke="#121e3d"
     fill="#8fe4ff"
     d="m 78.181086,49.34306 c 11.0456,0 20,-8.954323 20,-20.000003 0,-11.04568 -8.9544,-19.9999995 -20,-19.9999995 -11.0456,0 -20,8.9543195 -20,19.9999995 0,11.04568 8.9544,20.000003 20,20.000003 z"
     id="path4" />
  <path
     stroke-linejoin="round"
     stroke-miterlimit="10"
     stroke-width="4"
     stroke="#121e3d"
     d="m 78.181086,17.343057 v 12"
     id="path5" />
  <path
     stroke-linejoin="round"
     stroke-linecap="round"
     stroke-miterlimit="10"
     stroke-width="4"
     stroke="#121e3d"
     d="m 78.181086,37.343057 h 0.04"
     id="path6" />
</svg>
