<?xml version="1.0" encoding="UTF-8" standalone="no"?>
<svg
   width="72"
   height="72"
   viewBox="0 0 24 24"
   fill="none"
   data-reactroot=""
   version="1.1"
   id="svg3"
   sodipodi:docname="cloud-breeze---filled-(24x24)@3x.svg"
   inkscape:version="1.4 (e7c3feb1, 2024-10-09)"
   xmlns:inkscape="http://www.inkscape.org/namespaces/inkscape"
   xmlns:sodipodi="http://sodipodi.sourceforge.net/DTD/sodipodi-0.dtd"
   xmlns="http://www.w3.org/2000/svg"
   xmlns:svg="http://www.w3.org/2000/svg">
  <defs
     id="defs3" />
  <sodipodi:namedview
     id="namedview3"
     pagecolor="#ffffff"
     bordercolor="#000000"
     borderopacity="0.25"
     inkscape:showpageshadow="2"
     inkscape:pageopacity="0.0"
     inkscape:pagecheckerboard="0"
     inkscape:deskcolor="#d1d1d1"
     inkscape:zoom="4.1951358"
     inkscape:cx="75.802076"
     inkscape:cy="-9.296481"
     inkscape:window-width="1920"
     inkscape:window-height="1027"
     inkscape:window-x="0"
     inkscape:window-y="25"
     inkscape:window-maximized="1"
     inkscape:current-layer="svg3" />
  <path
     fill="#4382ff"
     d="m 14.967058,15.304256 c 3.2,0 6,-2.41 6,-5.5 0,-3.09 -2.6,-5.5 -5.8,-5.5 -3.2,0 -5.8000003,2.41 -5.8000003,5.5 -0.6,-1.45 -2.4,-2.51 -4.2,-2.51 -2.3,0 -4.20000004,1.74 -4.20000004,3.96 0,2.22 1.70000004,4.05 4.00000004,4.05"
     undefined="1"
     id="path1" />
  <path
     fill="#8fe4ff"
     d="m 9.4281435,14.509685 c -0.5946,0 -1.06247,0.3004 -1.26875,0.789 -0.21482,0.5088 -0.80143,0.7471 -1.31022,0.5322 -0.50879,-0.2148 -0.7471,-0.8014 -0.53228,-1.3102 0.55372,-1.3114 1.80587,-2.011 3.11125,-2.011 1.9272995,0 3.3799995,1.5939 3.3799995,3.5 0,1.9061 -1.4527,3.5 -3.3799995,3.5 h -7.62 c -0.55228,0 -1.00000004,-0.4477 -1.00000004,-1 0,-0.5523 0.44772004,-1 1.00000004,-1 h 7.62 c 0.7326995,0 1.3799995,-0.6061 1.3799995,-1.5 0,-0.8939 -0.6473,-1.5 -1.3799995,-1.5 z"
     clip-rule="evenodd"
     fill-rule="evenodd"
     undefined="1"
     id="path2" />
  <path
     fill="#8fe4ff"
     d="m 15.997916,18.430228 c -0.5379,0 -1.0609,0.3536 -1.2867,0.8291 -0.237,0.4988 -0.8335,0.7111 -1.3324,0.4742 -0.4988,-0.237 -0.7111,-0.8335 -0.4742,-1.3324 0.5342,-1.1245 1.7312,-1.9709 3.0933,-1.9709 1.9273,0 3.38,1.5939 3.38,3.5 0,1.9061 -1.4527,3.5 -3.38,3.5 H 5.3779156 c -0.55228,0 -1,-0.4477 -1,-1 0,-0.5523 0.44772,-1 1,-1 H 15.997916 c 0.7327,0 1.38,-0.6061 1.38,-1.5 0,-0.8939 -0.6473,-1.5 -1.38,-1.5 z"
     clip-rule="evenodd"
     fill-rule="evenodd"
     undefined="1"
     id="path3" />
  <path
     stroke-linejoin="round"
     stroke-linecap="round"
     stroke-miterlimit="10"
     stroke-width="1"
     stroke="#121e3d"
     fill="#8fe4ff"
     d="m 18.145535,10.913779 c 2.7614,0 5,-2.2385806 5,-5.0000006 0,-2.76142 -2.2386,-5.00000001 -5,-5.00000001 -2.7614,0 -5,2.23858001 -5,5.00000001 0,2.76142 2.2386,5.0000006 5,5.0000006 z"
     id="path4" />
  <path
     stroke-linejoin="round"
     stroke-miterlimit="10"
     stroke-width="1"
     stroke="#121e3d"
     d="m 18.145535,2.9137784 v 3"
     id="path5" />
  <path
     stroke-linejoin="round"
     stroke-linecap="round"
     stroke-miterlimit="10"
     stroke-width="1"
     stroke="#121e3d"
     d="m 18.145535,7.9137784 h 0.01"
     id="path6" />
</svg>
