<svg id="vector" xmlns="http://www.w3.org/2000/svg" width="108" height="108" viewBox="0 0 24 24"><path fill="#4382ff" d="m14.967,15.304c3.2,0 6,-2.41 6,-5.5 0,-3.09 -2.6,-5.5 -5.8,-5.5 -3.2,0 -5.8,2.41 -5.8,5.5 -0.6,-1.45 -2.4,-2.51 -4.2,-2.51 -2.3,0 -4.2,1.74 -4.2,3.96 0,2.22 1.7,4.05 4,4.05" id="path_0"/><path fill="#8fe4ff" fill-rule="evenodd" d="m9.428,14.51c-0.595,0 -1.062,0.3 -1.269,0.789 -0.215,0.509 -0.801,0.747 -1.31,0.532 -0.509,-0.215 -0.747,-0.801 -0.532,-1.31 0.554,-1.311 1.806,-2.011 3.111,-2.011 1.927,0 3.38,1.594 3.38,3.5 0,1.906 -1.453,3.5 -3.38,3.5h-7.62c-0.552,0 -1,-0.448 -1,-1 0,-0.552 0.448,-1 1,-1h7.62c0.733,0 1.38,-0.606 1.38,-1.5 0,-0.894 -0.647,-1.5 -1.38,-1.5z" id="path_1"/><path fill="#8fe4ff" fill-rule="evenodd" d="m15.998,18.43c-0.538,0 -1.061,0.354 -1.287,0.829 -0.237,0.499 -0.834,0.711 -1.332,0.474 -0.499,-0.237 -0.711,-0.834 -0.474,-1.332 0.534,-1.125 1.731,-1.971 3.093,-1.971 1.927,0 3.38,1.594 3.38,3.5 0,1.906 -1.453,3.5 -3.38,3.5H5.378c-0.552,0 -1,-0.448 -1,-1 0,-0.552 0.448,-1 1,-1H15.998c0.733,0 1.38,-0.606 1.38,-1.5 0,-0.894 -0.647,-1.5 -1.38,-1.5z" id="path_2"/><path fill="#427EF5DD" d="m18.146,10.914c2.761,0 5,-2.239 5,-5 0,-2.761 -2.239,-5 -5,-5 -2.761,0 -5,2.239 -5,5 0,2.761 2.239,5 5,5z" stroke-width="1" stroke="#F0BBB6E2" stroke-linecap="round" stroke-linejoin="round" id="path_3"/><path fill="#00000000" d="m18.146,2.914v3" stroke-width="1" stroke="#F0BBB6E2" stroke-linejoin="round" id="path_4"/><path fill="#00000000" d="m18.146,7.914h0.01" stroke-width="1" stroke="#F0BBB6E2" stroke-linecap="round" stroke-linejoin="round" id="path_5"/></svg>