<svg height="30mm" viewBox="0 0 140 30" width="140mm" xmlns="http://www.w3.org/2000/svg"><g stroke-width=".463021" transform="matrix(3.9677183 0 0 3.9677183 -399.73923 -574.05996)"><path d="m104.31303 148.23282a1.6205729 1.6205729 0 0 1 1.62057 1.64604.23151041.23151041 0 0 0 .28892.2278.69592031.69592031 0 0 1 .86863.67277.69453124.69453124 0 0 1 -.69453.69453h-3.93568a.92604166.92604166 0 1 1 .0463-1.85115.23151041.23151041 0 0 0 .23615-.17364 1.6214989 1.6214989 0 0 1 1.56964-1.21635zm2.07109 1.38906a2.0835937 2.0835937 0 0 0 -4.03754-.45839 1.3890625 1.3890625 0 0 0 .11436 2.77349h3.93568a1.1575521 1.1575521 0 0 0 0-2.3151z"/><path d="m105.9336 145.22318a.23151041.23151041 0 0 0 -.46302 0v.46302a.23151041.23151041 0 0 0 .46302 0zm1.73309.90937a.23151041.23151041 0 1 0 -.32736-.32735l-.32782.32735a.23180375.23180375 0 0 0 .32782.32782zm-3.60184-.32735a.23151041.23151041 0 0 0 -.32736.32735l.32736.32782a.23180375.23180375 0 1 0 .32782-.32782zm.80287 1.56223a.92604166.92604166 0 1 1 1.52612 1.01772c.0921.13011.17225.26948.23892.41579a1.3890625 1.3890625 0 1 0 -2.24102-1.49324c.16298.005.32226.0255.47598.0597zm2.07619 1.88635c.27781.0995.5209.27318.70472.49636a.23151041.23151041 0 0 0 .0181-.34357l-.32736-.32735a.23151041.23151041 0 0 0 -.39542.17456zm.84177-1.71549a.23151041.23151041 0 0 0 0 .46302h.46302a.23151041.23151041 0 0 0 0-.46302z"/></g><path d="m47.38828 15.858582q0 1.373061-.347401 2.497978-.330858 1.108375-1.02566 1.918977-.678259.810602-1.737005 1.240717-1.058745.430116-2.51452.430116-1.439233 0-2.514521-.430116-1.058746-.430115-1.753548-1.240717-.678259-.810602-1.025659-1.918977-.330858-1.124917-.330858-2.51452 0-1.836262.595544-3.19278.612087-1.356518 1.852805-2.100949 1.25726-.7609735 3.192779-.7609735 1.918977 0 3.159694.7609735 1.257261.744431 1.852805 2.117492.595545 1.356518.595545 3.192779zm-8.585766 0q0 1.224175.297773 2.117492.314315.893316.976031 1.37306.661716.463202 1.687376.463202 1.058745 0 1.703918-.463202.661716-.479744.959488-1.37306.297773-.893317.297773-2.117492 0-1.852804-.678259-2.91155-.678259-1.058746-2.266378-1.058746-1.042202 0-1.703918.479745-.661716.479744-.976031 1.37306-.297773.876774-.297773 2.117491zm15.781933-3.275494q1.571575 0 2.481435 1.191089.909859 1.174546.909859 3.474009 0 1.521947-.446658 2.580692-.430115 1.058746-1.207632 1.588119-.777516.529373-1.803176.529373-.661716 0-1.14146-.165429-.479744-.181972-.810602-.430116-.314315-.264686-.545916-.545915h-.09926q.03309.297772.06617.694801.03308.380487.03308.79406v3.457466h-2.497978v-13.00272h2.034777l.347401 1.174546h.1158q.248144-.380487.579002-.678259.347401-.297772.827145-.479744.496287-.181972 1.158003-.181972zm-.827145 1.985148q-.62863 0-1.009117.264687-.380487.264686-.545916.794059-.165429.529373-.181972 1.339975v.264686q0 .860231.148886 1.472318.165429.595545.545916.90986.39703.314315 1.058746.314315.562458 0 .926402-.314315.380487-.314315.562459-.90986.181972-.612087.181972-1.488861 0-1.339975-.430116-1.985148-.413572-.661716-1.25726-.661716zm10.074626-1.985148q1.25726 0 2.16712.479744.909859.463202 1.389603 1.389604.496287.909859.496287 2.233291v1.207632h-5.806558q.03309 1.02566.62863 1.621204.595545.579002 1.703919.579002.843688 0 1.53849-.165429.694802-.165429 1.422689-.496287v1.869348q-.661716.330858-1.406146.479744-.727888.165429-1.819719.165429-1.339975 0-2.382178-.496287-1.02566-.496287-1.621204-1.521947-.595545-1.042203-.595545-2.597235 0-1.588119.529373-2.630322.545916-1.058745 1.505404-1.588118.976031-.529373 2.249835-.529373zm.06617 1.770091q-.74443 0-1.207631.479744-.463202.463201-.545916 1.389603h3.407837q0-.545915-.181972-.959488-.181972-.413572-.562458-.661716-.363944-.248143-.90986-.248143zm11.11683-1.770091q1.488861 0 2.349092.777517.86023.777516.86023 2.531063v5.889273h-2.481435v-5.260643q0-.976031-.363943-1.455775-.347401-.496287-1.091832-.496287-1.124917 0-1.53849.777517-.397029.760973-.397029 2.200205v4.234983h-2.497978v-9.032424h1.918976l.347401 1.207632h.09926q.297772-.446658.711344-.744431.430116-.314315.942946-.463201.529372-.165429 1.14146-.165429zm4.847064 5.790015v-2.051319h4.350783v2.051319zm11.31534 3.407838-2.845379-9.264024h-.06617q.01654.330858.04963.992574.03309.661716.06617 1.422689.03309.744431.03309 1.356518v5.492243h-2.233296v-11.8116316h3.407838l2.79575 9.0324236h.04963l2.961179-9.0324236h3.407837v11.8116316h-2.332549v-5.591501q0-.562458.01654-1.290346.03309-.727887.04963-1.37306.03309-.661716.04963-.992574h-.06617l-3.043894 9.247481zm14.177278-9.197853q1.25726 0 2.16712.479744.90986.463202 1.3896 1.389604.49629.909859.49629 2.233291v1.207632h-5.80656q.0331 1.02566.62863 1.621204.59555.579002 1.70392.579002.84369 0 1.53849-.165429.6948-.165429 1.42269-.496287v1.869348q-.66172.330858-1.40615.479744-.72789.165429-1.81972.165429-1.33997 0-2.38217-.496287-1.02566-.496287-1.62121-1.521947-.59554-1.042203-.59554-2.597235 0-1.588119.52937-2.630322.54592-1.058745 1.5054-1.588118.97603-.529373 2.24984-.529373zm.0662 1.770091q-.74443 0-1.20763.479744-.4632.463201-.54592 1.389603h3.40784q0-.545915-.18197-.959488-.18197-.413572-.56246-.661716-.36394-.248143-.90986-.248143zm9.84303 5.624586q.41357 0 .79406-.08272.38048-.08271.76097-.198515v1.836262q-.39703.165429-.99257.281229-.57901.132344-1.27381.132344-.8106 0-1.45577-.264687-.62863-.264686-1.00912-.909859-.36394-.661716-.36394-1.819719v-4.350783h-1.17455v-1.042203l1.35652-.827145.71134-1.902434h1.57158v1.918977h2.53106v1.852805h-2.53106v4.350783q0 .51283.29777.777516.29777.248144.77752.248144zm7.14653-7.394677q1.25726 0 2.16712.479744.90986.463202 1.3896 1.389604.49629.909859.49629 2.233291v1.207632h-5.80656q.0331 1.02566.62863 1.621204.59555.579002 1.70392.579002.84369 0 1.53849-.165429.6948-.165429 1.42269-.496287v1.869348q-.66171.330858-1.40615.479744-.72788.165429-1.81971.165429-1.33998 0-2.38218-.496287-1.02566-.496287-1.62121-1.521947-.59554-1.042203-.59554-2.597235 0-1.588119.52937-2.630322.54592-1.058745 1.50541-1.588118.97603-.529373 2.24983-.529373zm.0662 1.770091q-.74443 0-1.20763.479744-.4632.463201-.54592 1.389603h3.40784q0-.545915-.18197-.959488-.18197-.413572-.56246-.661716-.36394-.248143-.90986-.248143zm14.29307 2.895007q0 1.124917-.31431 2.001691-.29778.876774-.87678 1.472318-.56246.595544-1.37306.90986-.8106.314315-1.83626.314315-.95949 0-1.75355-.314315-.79406-.314316-1.37306-.90986-.579-.595544-.90986-1.472318-.33086-.876774-.33086-2.001691 0-1.505404.52938-2.547607.52937-1.042202 1.52194-1.571575.99258-.545916 2.36564-.545916 1.2738 0 2.24983.545916.97603.529373 1.53849 1.571575.56246 1.042203.56246 2.547607zm-6.22013 0q0 .876774.18197 1.505404.19852.62863.59555.959488.41357.330858 1.07528.330858.64518 0 1.04221-.330858.41357-.330858.59554-.959488.18197-.62863.18197-1.505404 0-.893317-.19851-1.505404-.18197-.612087-.579-.926402-.39703-.330858-1.05875-.330858-.95949 0-1.40614.711344-.43012.711345-.43012 2.05132z" stroke-width=".387724"/></svg>