<svg fill="none" viewBox="0 0 134 25" xmlns="http://www.w3.org/2000/svg" xmlns:xlink="http://www.w3.org/1999/xlink"><clipPath id="a"><path d="m0 0h134v25h-134z"/></clipPath><g clip-path="url(#a)"><path d="m14.8392.189575c1.1514.200774 2.2689.559616 3.3199 1.066135-1.5651 1.24533-3.5139 1.92324-5.5225 1.92103-2.0095.00278-3.95931-.67516-5.52508-1.92103 1.05187-.506739 2.17016-.865586 3.32248-1.066135.7036.264322 1.45.39959 2.2026.399175.7526.000415 1.499-.134853 2.2026-.399175z" fill="#0072f5"/><path d="m20.8157 2.97214c.7141.60044 1.3589 1.27704 1.9227 2.0175-2.7253 2.56157-6.3424 3.98763-10.1018 3.9826-3.75939.00503-7.37658-1.42103-10.10185-3.9826.56334-.74037 1.20757-1.41696 1.921-2.0175 2.20626 2.0758 5.13597 3.23132 8.18085 3.22667 3.0443.00423 5.9733-1.15127 8.1791-3.22667z" fill="#0072f5"/><path d="m1.00888 7.60007c-.367883.8528-.637758 1.74378-.80455 2.65613 2.92057.8519 5.3974 2.7835 6.91643 5.3939 1.52533 2.6074 1.97693 5.6958 1.26104 8.6238.88256.3118 1.7976.5249 2.7281.6354.8799-3.6153.3197-7.4269-1.56457-10.6447-1.87495-3.2232-4.9315-5.60954-8.53645-6.66453z" fill="#0072f5"/><path d="m.756665 16.7661c-.398911-1.087-.642815-2.2236-.7246826-3.3772 1.8729476.7175 3.4409776 2.0479 4.4430976 3.7697 1.00706 1.7194 1.38832 3.7281 1.08029 5.6916-.96847-.6498-1.84153-1.4289-2.59439-2.3152-.12127-.7323-.37593-1.4367-.75159-2.079-.37634-.646-.86864-1.2187-1.452725-1.6899z" fill="#0072f5"/><path d="m18.1533 15.6501c1.519-2.6104 3.9958-4.542 6.9164-5.3939-.1668-.91235-.4367-1.80333-.8046-2.65613-3.6034 1.05825-6.6595 3.44283-8.5392 6.66273-1.8797 3.22-2.4398 7.0303-1.5651 10.6465.9304-.1105 1.8455-.3236 2.728-.6354-.7148-2.9285-.262-6.0168 1.2645-8.6238z" fill="#0072f5"/><path d="m24.5173 16.7686c-1.1752.9494-1.9591 2.291-2.2043 3.7722-.7531.8848-1.6262 1.6625-2.5944 2.3111-.3049-1.9635.0761-3.9711 1.0801-5.6915s2.5711-3.0508 4.4425-3.7715c-.0814 1.1544-.325 2.2919-.7239 3.3797z" fill="#0072f5"/><g fill="#17152e"><path d="m34.6365 10.6471v5.0371c0 .3508.0823.6077.247.7706.1773.1504.4687.2255.874.2255h1.2351v2.2179h-1.6721c-2.2421 0-3.3631-1.0776-3.3631-3.2328v-5.0183h-1.254v-2.1615h1.254v-2.57496h2.6791v2.57496h2.3561v2.1615z"/><path d="m43.58 19.0673c-1.0134 0-1.9254-.2192-2.7361-.6578-.8107-.4511-1.4504-1.0838-1.9191-1.8983-.456-.8145-.684-1.7542-.684-2.8193s.2344-2.0048.703-2.8193c.4814-.8145 1.1337-1.44097 1.9571-1.87953.8234-.45108 1.7417-.67663 2.7551-.67663s1.9317.22555 2.7551.67663c.8233.43856 1.4694 1.06503 1.938 1.87953.4814.8145.7221 1.7542.7221 2.8193s-.247 2.0048-.7411 2.8193c-.4813.8145-1.14 1.4472-1.976 1.8983-.8234.4386-1.7481.6578-2.7741.6578zm0-2.293c.4813 0 .931-.1127 1.349-.3383.4307-.2381.7727-.5889 1.0261-1.0525.2533-.4636.38-1.0275.38-1.6916 0-.9899-.266-1.748-.7981-2.2742-.5193-.5388-1.159-.8082-1.919-.8082s-1.3997.2694-1.9191.8082c-.5067.5262-.76 1.2843-.76 2.2742s.247 1.7542.741 2.293c.5067.5263 1.1401.7894 1.9001.7894z"/><path d="m64.0948 8.33524c1.2921 0 2.3308.3947 3.1161 1.1841.7981.77686 1.1971 1.86696 1.1971 3.27036v6.1085h-2.6601v-5.7514c0-.8144-.209-1.4347-.627-1.8607-.418-.4386-.9881-.6578-1.7101-.6578s-1.2984.2192-1.729.6578c-.418.426-.6271 1.0463-.6271 1.8607v5.7514h-2.66v-5.7514c0-.8144-.209-1.4347-.6271-1.8607-.418-.4386-.988-.6578-1.71-.6578-.7347 0-1.3174.2192-1.7481.6578-.418.426-.627 1.0463-.627 1.8607v5.7514h-2.6601v-10.4126h2.6601v1.25928c.342-.43855.779-.78313 1.3111-1.03374.5446-.2506 1.14-.3759 1.786-.3759.8234 0 1.5581.17542 2.2041.52627.646.33831 1.1464.82699 1.501 1.46599.342-.60141.8361-1.08382 1.4821-1.4472.6587-.36337 1.368-.54506 2.128-.54506z"/><path d="m75.6064 19.0673c-1.0134 0-1.9254-.2192-2.7361-.6578-.8107-.4511-1.4504-1.0838-1.9191-1.8983-.456-.8145-.684-1.7542-.684-2.8193s.2344-2.0048.703-2.8193c.4814-.8145 1.1337-1.44097 1.9571-1.87953.8234-.45108 1.7417-.67663 2.7551-.67663s1.9317.22555 2.7551.67663c.8233.43856 1.4694 1.06503 1.938 1.87953.4814.8145.7221 1.7542.7221 2.8193s-.247 2.0048-.7411 2.8193c-.4813.8145-1.14 1.4472-1.976 1.8983-.8234.4386-1.7481.6578-2.7741.6578zm0-2.293c.4813 0 .931-.1127 1.349-.3383.4307-.2381.7727-.5889 1.0261-1.0525.2533-.4636.38-1.0275.38-1.6916 0-.9899-.266-1.748-.7981-2.2742-.5193-.5388-1.159-.8082-1.919-.8082s-1.3997.2694-1.9191.8082c-.5067.5262-.76 1.2843-.76 2.2742s.247 1.7542.741 2.293c.5067.5263 1.1401.7894 1.9001.7894z"/><path d="m85.7089 10.102c.342-.55133.7854-.98363 1.3301-1.29688.5573-.31326 1.1907-.46988 1.9-.46988v2.76286h-.703c-.836 0-1.4694.1943-1.9001.5827-.418.3884-.627 1.0651-.627 2.0299v5.1875h-2.6601v-10.4126h2.6601z"/><path d="m93.3908 10.102c.342-.55133.7854-.98363 1.33-1.29688.5574-.31326 1.1907-.46988 1.9001-.46988v2.76286h-.703c-.8361 0-1.4694.1943-1.9001.5827-.418.3884-.627 1.0651-.627 2.0299v5.1875h-2.6601v-10.4126h2.6601z"/><path d="m103.087 19.0673c-1.014 0-1.926-.2192-2.736-.6578-.811-.4511-1.4507-1.0838-1.9194-1.8983-.456-.8145-.684-1.7542-.684-2.8193s.2343-2.0048.703-2.8193c.4813-.8145 1.1337-1.44097 1.9574-1.87953.823-.45108 1.741-.67663 2.755-.67663 1.013 0 1.931.22555 2.755.67663.823.43856 1.469 1.06503 1.938 1.87953.481.8145.722 1.7542.722 2.8193s-.247 2.0048-.741 2.8193c-.481.8145-1.14 1.4472-1.976 1.8983-.824.4386-1.748.6578-2.774.6578zm0-2.293c.481 0 .931-.1127 1.349-.3383.43-.2381.772-.5889 1.026-1.0525.253-.4636.38-1.0275.38-1.6916 0-.9899-.266-1.748-.798-2.2742-.52-.5388-1.159-.8082-1.919-.8082s-1.4.2694-1.919.8082c-.507.5262-.76 1.2843-.76 2.2742s.247 1.7542.741 2.293c.506.5263 1.14.7894 1.9.7894z"/><path d="m125.122 8.4856-3.078 10.4126h-2.87l-1.919-7.2738-1.919 7.2738h-2.888l-3.097-10.4126h2.698l1.862 7.9316 2.014-7.9316h2.812l1.977 7.9128 1.862-7.9128z"/><g opacity=".5"><path d="m126.675 18.8973c-.179 0-.327-.0536-.445-.1607-.113-.1118-.17-.2492-.17-.4123 0-.163.057-.2981.17-.4053.118-.1118.266-.1677.445-.1677.174 0 .318.0559.431.1677.113.1072.169.2423.169.4053 0 .1631-.056.3005-.169.4123-.113.1071-.257.1607-.431.1607z"/><path d="m128.573 14.5162c-.174 0-.32-.0536-.438-.1607-.113-.1118-.169-.2493-.169-.4123s.056-.2981.169-.4053c.118-.1118.264-.1677.438-.1677.175 0 .318.0559.431.1677.118.1072.177.2423.177.4053s-.059.3005-.177.4123c-.113.1071-.256.1607-.431.1607zm.488.4611v3.8711h-.989v-3.8711z"/><path d="m131.775 18.9113c-.376 0-.715-.0816-1.017-.2446-.301-.1677-.539-.4029-.713-.7057-.17-.3028-.254-.6522-.254-1.0481 0-.396.087-.7454.261-1.0482.179-.3027.421-.5357.727-.6987.307-.1677.648-.2515 1.025-.2515.376 0 .718.0838 1.024.2515.306.163.546.396.72.6987.179.3028.269.6522.269 1.0482 0 .3959-.092.7453-.276 1.0481-.179.3028-.423.538-.734.7057-.306.163-.65.2446-1.032.2446zm0-.8525c.179 0 .347-.0419.502-.1258.16-.0885.287-.2189.381-.3913.095-.1723.142-.382.142-.6288 0-.368-.099-.6499-.297-.8455-.193-.2003-.431-.3005-.713-.3005-.283 0-.521.1002-.714.3005-.188.1956-.282.4775-.282.8455s.091.6521.275.8524c.188.1957.424.2935.706.2935z"/></g></g></g></svg>