<?xml version="1.0" encoding="UTF-8"?>
<!-- Generator: visioncortex VTracer 0.6.3 -->
<svg version="1.1" xmlns="http://www.w3.org/2000/svg" width="572" height="267">
<path d="M0 0 C4.37 1.56 6.69 4.96 9.44 8.5 C9.96 9.16 10.48 9.82 11.02 10.5 C16.69 17.78 22.09 25.26 27.43 32.79 C28.9 34.86 30.37 36.91 31.86 38.97 C45.77 58.39 59.08 78.29 71 99 C71.66 100.13 71.66 100.13 72.33 101.29 C88.48 129.3 103.42 159.01 94.84 192.08 C88.19 215.39 73.42 235.3 52.18 247.19 C30.85 258.6 5.74 261.83 -17.75 255.39 C-40.91 248.21 -60.53 232.37 -72 211 C-83.89 187.11 -84.54 163.46 -76.22 138.54 C-64.09 103.92 -45.3 71.78 -26.06 40.71 C-25.02 39.03 -23.98 37.35 -22.94 35.67 C-15.5 23.63 -7.96 11.69 0 0 Z M-21 140 C-25.37 145.85 -28.3 151.38 -28.12 158.81 C-28.11 159.79 -28.09 160.76 -28.07 161.77 C-28.05 162.51 -28.02 163.24 -28 164 C-28.84 163.52 -28.84 163.52 -29.7 163.03 C-33.74 161.22 -37.67 161.26 -42 162 C-45.85 163.85 -48.21 166.26 -49.98 170.16 C-51.13 174.23 -51.11 176.63 -49.94 180.75 C-46.48 186.55 -42.54 190.14 -36 192 C-32.38 192.37 -28.8 192.29 -25.16 192.2 C-24.09 192.19 -23.01 192.18 -21.9 192.16 C-19.53 192.13 -17.16 192.1 -14.8 192.06 C-10.86 192 -6.92 191.97 -2.98 191.96 C3.38 191.94 9.75 191.89 16.11 191.82 C19.77 191.78 23.42 191.74 27.07 191.73 C30.69 191.71 34.3 191.68 37.92 191.63 C39.92 191.61 41.93 191.61 43.94 191.61 C50.81 191.49 55.47 191.23 61 187 C66.96 180.57 66.41 173.76 66.28 165.47 C66.06 160.27 64.98 156.31 62 152 C61.56 151.36 61.13 150.72 60.68 150.05 C57.27 145.61 53.44 142.51 48 141 C41.75 140.35 35.83 140.41 30 143 C29.04 141.7 29.04 141.7 28.06 140.38 C22.42 133.63 15 129.55 6.25 128.75 C-4.94 128.29 -13.44 131.68 -21 140 Z " fill="#A1C626" transform="translate(82,0)"/>
<path d="M0 0 C12.55 27.18 19 51.53 8.68 80.74 C-0.64 104.04 -18.22 121.08 -40.99 131.17 C-62.33 139.92 -88.09 139.86 -109.46 131.27 C-123.12 125.4 -134.65 116.66 -144.55 105.61 C-145.53 104.52 -146.53 103.46 -147.54 102.4 C-150.97 98.78 -154.32 95.09 -155 90 C-153.66 83.03 -149.7 76.95 -146 71 C-145.49 70.05 -144.98 69.1 -144.45 68.12 C-142.75 65.64 -141.19 64.52 -138.56 63.06 C-137.8 62.62 -137.04 62.18 -136.25 61.72 C-134 61 -134 61 -131.86 61.71 C-130 63 -130 63 -127.62 65.5 C-122.01 70.85 -115.53 70.25 -108.23 70.14 C-107.14 70.13 -106.06 70.12 -104.94 70.11 C-102.57 70.09 -100.19 70.07 -97.81 70.04 C-93.87 70 -89.92 69.98 -85.98 69.96 C-79.62 69.94 -73.25 69.89 -66.89 69.82 C-63.23 69.78 -59.58 69.74 -55.93 69.73 C-52.31 69.71 -48.7 69.68 -45.08 69.63 C-43.08 69.61 -41.07 69.61 -39.06 69.61 C-32.21 69.49 -27.49 69.28 -22 65 C-17.96 60.05 -17.35 55.39 -17.5 49.12 C-17.51 48.33 -17.52 47.53 -17.53 46.72 C-17.73 40.78 -18.61 35.99 -22 31 C-22.36 30.43 -22.72 29.86 -23.1 29.28 C-26.2 25 -29.94 22.32 -35 21 C-40.03 20.68 -44.97 20.76 -50 21 C-46.53 18.05 -42.67 16.46 -38.49 14.79 C-37.76 14.49 -37.03 14.19 -36.28 13.89 C-33.96 12.94 -31.64 12 -29.31 11.06 C-27.01 10.13 -24.71 9.19 -22.41 8.26 C-20.93 7.66 -19.45 7.05 -17.97 6.46 C-14.15 4.9 -10.36 3.29 -6.61 1.56 C-3 0 -3 0 0 0 Z " fill="#67B22D" transform="translate(165,121)"/>
<path d="M0 0 C-4.92 10.71 -10.34 20.03 -18 29 C-18.86 30.01 -18.86 30.01 -19.73 31.04 C-33.1 45.5 -54.87 56.01 -74.43 57.14 C-100.12 58.05 -123.27 53.48 -143 36 C-143.33 35.34 -143.66 34.68 -144 34 C-143.37 34.02 -142.74 34.03 -142.09 34.05 C-125.31 34.34 -111.01 31.55 -95.15 26.31 C-85.05 22.99 -74.83 20.05 -64.64 17.05 C-59.91 15.66 -55.19 14.27 -50.47 12.87 C-48.18 12.19 -45.89 11.52 -43.6 10.84 C-37.76 9.11 -31.93 7.38 -26.09 5.64 C-23.16 4.76 -20.22 3.89 -17.28 3.02 C-15.37 2.45 -13.45 1.88 -11.54 1.3 C-10.43 0.97 -9.32 0.65 -8.18 0.31 C-7.24 0.03 -6.3 -0.25 -5.33 -0.54 C-3 -1 -3 -1 0 0 Z " fill="#379835" transform="translate(174,201)"/>
<path d="M0 0 C4.62 0 9.24 0 14 0 C21.27 23.54 21.27 23.54 24.27 35.43 C24.75 37.91 24.75 37.91 26 39 C28.64 28.11 31.28 17.22 34 6 C38.95 6 43.9 6 49 6 C49.41 7.8 49.82 9.59 50.24 11.44 C50.79 13.82 51.33 16.19 51.88 18.56 C52.14 19.74 52.41 20.93 52.69 22.14 C53.09 23.87 53.09 23.87 53.49 25.63 C53.73 26.68 53.97 27.73 54.22 28.82 C55.06 32.24 56.01 35.62 57 39 C57.36 37.85 57.72 36.71 58.09 35.53 C59.41 31.29 60.74 27.05 62.07 22.82 C62.65 20.98 63.22 19.15 63.8 17.31 C64.62 14.68 65.45 12.04 66.28 9.41 C66.66 8.17 66.66 8.17 67.06 6.91 C68.89 1.11 68.89 1.11 70 0 C72.19 -0.07 74.38 -0.08 76.56 -0.06 C78.36 -0.05 78.36 -0.05 80.19 -0.04 C81.12 -0.02 82.05 -0.01 83 0 C81.46 7.63 79.23 14.94 76.87 22.35 C76.47 23.6 76.07 24.85 75.67 26.14 C74.62 29.44 73.57 32.74 72.52 36.04 C71.44 39.42 70.37 42.8 69.3 46.18 C67.2 52.79 65.1 59.39 63 66 C58.71 66 54.42 66 50 66 C47.5 56.99 45.26 47.96 43.31 38.82 C42.49 34.8 42.49 34.8 41 31 C40.76 32.02 40.53 33.05 40.28 34.11 C39.4 37.89 38.52 41.68 37.64 45.47 C37.25 47.11 36.87 48.76 36.49 50.4 C35.95 52.75 35.4 55.11 34.85 57.46 C34.68 58.2 34.51 58.94 34.33 59.7 C33.11 64.89 33.11 64.89 32 66 C29.98 66.07 27.96 66.08 25.94 66.06 C24.83 66.05 23.73 66.04 22.59 66.04 C21.74 66.02 20.88 66.01 20 66 C17.26 59.04 15.11 51.95 12.99 44.79 C12.62 43.53 12.24 42.28 11.86 40.99 C11.07 38.36 10.29 35.73 9.51 33.1 C8.51 29.72 7.5 26.34 6.49 22.96 C5.53 19.74 4.57 16.51 3.61 13.29 C3.07 11.46 3.07 11.46 2.51 9.6 C2.18 8.48 1.85 7.37 1.51 6.22 C1.22 5.23 0.93 4.25 0.63 3.23 C0 1 0 1 0 0 Z " fill="#333334" transform="translate(198,73)"/>
<path d="M0 0 C32.58 0 32.58 0 37.96 4.72 C38.43 5.31 38.89 5.89 39.38 6.5 C39.86 7.09 40.34 7.68 40.84 8.28 C43.64 12.42 43.2 16.97 43.24 21.76 C43.25 22.63 43.25 23.49 43.26 24.38 C43.28 26.21 43.29 28.05 43.3 29.88 C43.31 31.74 43.33 33.61 43.36 35.47 C43.4 38.17 43.42 40.87 43.43 43.57 C43.44 44.4 43.46 45.22 43.48 46.07 C43.46 51.79 42.31 56.27 39 61 C34.81 64.33 31.35 66.14 25.99 66.1 C24.96 66.09 24.96 66.09 23.92 66.09 C23.06 66.08 22.2 66.07 21.31 66.06 C18.57 66.04 15.83 66.02 13 66 C13 73.59 13 81.18 13 89 C8.71 89 4.42 89 0 89 C0 59.63 0 30.26 0 0 Z M13 13 C12.93 18.21 12.87 23.43 12.84 28.64 C12.82 30.42 12.8 32.19 12.77 33.97 C12.74 36.51 12.72 39.06 12.71 41.61 C12.69 42.41 12.68 43.2 12.66 44.02 C12.62 48.25 12.62 48.25 14.36 52 C16.76 53.47 18.7 53.4 21.5 53.38 C22.46 53.38 23.42 53.39 24.41 53.4 C26.95 53.19 26.95 53.19 28.64 51.95 C30.72 48.97 30.43 45.89 30.4 42.38 C30.4 41.63 30.4 40.89 30.41 40.12 C30.41 38.55 30.4 36.98 30.39 35.41 C30.38 33.01 30.39 30.61 30.41 28.2 C30.41 26.68 30.4 25.15 30.4 23.62 C30.4 22.91 30.41 22.19 30.42 21.45 C30.38 18.68 30.27 16.49 28.92 14.04 C25.91 12.41 23.2 12.72 19.81 12.81 C17.9 12.85 17.9 12.85 15.96 12.89 C14.98 12.93 14.01 12.96 13 13 Z " fill="#6FB52B" transform="translate(489,178)"/>
<path d="M0 0 C4.29 0 8.58 0 13 0 C13 9.9 13 19.8 13 30 C18.32 29.88 18.32 29.88 23.65 29.73 C28.52 29.68 31.78 30.31 36 33 C40.86 38.08 43.26 42.29 43.23 49.34 C43.23 50.38 43.23 51.42 43.23 52.49 C43.22 53.61 43.21 54.72 43.2 55.86 C43.19 57.01 43.19 58.16 43.19 59.34 C43.18 63 43.15 66.65 43.12 70.31 C43.11 72.79 43.11 75.28 43.1 77.76 C43.08 83.84 43.04 89.92 43 96 C38.71 96 34.42 96 30 96 C29.67 78.84 29.34 61.68 29 44 C24.38 44 19.76 44 15 44 C13.36 45.64 13.83 47.53 13.79 49.8 C13.77 50.82 13.75 51.84 13.73 52.89 C13.72 54 13.7 55.11 13.68 56.25 C13.66 57.38 13.64 58.52 13.62 59.68 C13.56 63.31 13.5 66.93 13.44 70.56 C13.39 73.01 13.35 75.47 13.31 77.92 C13.2 83.95 13.1 89.97 13 96 C8.71 96 4.42 96 0 96 C0 64.32 0 32.64 0 0 Z " fill="#333334" transform="translate(437,43)"/>
<path d="M0 0 C0.79 -0.02 1.59 -0.04 2.41 -0.06 C7.43 -0.1 10.84 0.47 15.19 3.25 C21.29 9.49 22.42 14.85 22.37 23.31 C22.35 24.4 22.33 25.5 22.31 26.62 C22.27 30.13 22.23 33.64 22.19 37.25 C12.29 37.25 2.39 37.25 -7.81 37.25 C-8.31 49.18 -8.31 49.18 -4.81 52.25 C-2.48 52.61 -2.48 52.61 0.12 52.56 C1.44 52.59 1.44 52.59 2.78 52.61 C5.22 52.43 5.22 52.43 6.94 50.98 C8.5 49.04 8.5 49.04 9.19 45.25 C13.48 45.25 17.77 45.25 22.19 45.25 C21.9 52.35 21.3 57.11 16.19 62.25 C9.26 67.32 1.47 66.75 -6.81 66.25 C-12.85 65.11 -16.37 61.05 -19.81 56.25 C-21.53 52.82 -21.02 48.89 -21.05 45.11 C-21.06 44.2 -21.07 43.29 -21.08 42.35 C-21.09 40.41 -21.1 38.48 -21.11 36.54 C-21.12 33.59 -21.17 30.64 -21.21 27.7 C-21.22 25.82 -21.23 23.93 -21.24 22.05 C-21.26 21.17 -21.27 20.3 -21.29 19.4 C-21.27 13.49 -20.22 10.1 -16.81 5.25 C-11.38 0.22 -7.03 0.04 0 0 Z M-7.81 15.25 C-8.06 17.69 -8.06 17.69 -7.94 20.38 C-7.9 21.98 -7.86 23.59 -7.81 25.25 C-2.2 25.25 3.41 25.25 9.19 25.25 C9.28 23.12 9.28 23.12 9.38 20.94 C9.41 20.14 9.44 19.34 9.48 18.51 C9.35 16.22 9.35 16.22 8.05 14.48 C5.38 12.72 3.3 12.89 0.12 12.94 C-0.94 12.94 -2 12.95 -3.1 12.95 C-5.96 12.98 -5.96 12.98 -7.81 15.25 Z " fill="#333334" transform="translate(310.8125,72.75)"/>
<path d="M0 0 C4.38 -0.08 8.75 -0.14 13.12 -0.19 C14.36 -0.21 15.6 -0.24 16.88 -0.26 C18.07 -0.27 19.27 -0.28 20.51 -0.29 C21.61 -0.31 22.71 -0.32 23.84 -0.34 C28.43 0.15 31.69 1.95 35.25 4.81 C40.03 10.79 39.26 17.93 39.2 25.18 C39.19 26.35 39.19 27.52 39.19 28.72 C39.18 32.44 39.15 36.16 39.12 39.88 C39.11 42.4 39.11 44.93 39.1 47.45 C39.08 53.64 39.04 59.82 39 66 C35 66.07 31 66.13 26.99 66.16 C25.64 66.18 24.28 66.2 22.92 66.23 C13.85 66.4 7.5 66.5 0.19 60.81 C-4.53 54.75 -4.55 47.39 -4 40 C-3.24 33.98 -1.23 30.23 3 26 C5.95 24.19 8.11 23.76 11.55 23.8 C12.81 23.81 12.81 23.81 14.11 23.82 C14.98 23.84 15.85 23.86 16.75 23.88 C18.08 23.89 18.08 23.89 19.44 23.9 C21.63 23.93 23.81 23.96 26 24 C25.34 20.7 24.68 17.4 24 14 C16.08 13.67 8.16 13.34 0 13 C0 8.71 0 4.42 0 0 Z M10 38 C8.85 40.3 8.77 41.81 8.69 44.38 C8.65 45.15 8.61 45.92 8.57 46.71 C9.18 49.98 10.32 51.07 13 53 C16.27 53.48 16.27 53.48 19.75 53.25 C22.84 53.13 22.84 53.13 26 53 C26 47.39 26 41.78 26 36 C24.1 35.96 22.2 35.92 20.25 35.88 C19.18 35.85 18.12 35.83 17.02 35.8 C14.05 36 12.45 36.36 10 38 Z " fill="#333334" transform="translate(347,73)"/>
<path d="M0 0 C0.79 -0.02 1.59 -0.04 2.41 -0.06 C8.98 -0.11 13.12 1.23 17.94 5.94 C22.79 12.27 22.45 20.15 22.31 27.75 C22.27 30.89 22.23 34.02 22.19 37.25 C11.96 37.25 1.73 37.25 -8.81 37.25 C-8.35 47.03 -8.35 47.03 -6.81 51.25 C-4.36 52.48 -2.61 52.45 0.12 52.5 C1.44 52.54 1.44 52.54 2.78 52.58 C5.22 52.44 5.22 52.44 6.94 50.98 C8.5 49.04 8.5 49.04 9.19 45.25 C13.48 45.25 17.77 45.25 22.19 45.25 C20.44 58.48 20.44 58.48 16.19 62.25 C9.1 67.21 1.59 66.78 -6.81 66.25 C-11.99 65.13 -15.4 62.24 -18.81 58.25 C-20.49 55.4 -21.07 53.33 -21.09 50.04 C-21.1 48.8 -21.1 48.8 -21.12 47.55 C-21.12 46.67 -21.11 45.79 -21.11 44.88 C-21.12 43.97 -21.12 43.06 -21.13 42.12 C-21.13 40.19 -21.13 38.26 -21.13 36.33 C-21.13 33.39 -21.15 30.45 -21.17 27.51 C-21.18 25.64 -21.18 23.76 -21.18 21.88 C-21.18 21.01 -21.19 20.13 -21.2 19.23 C-21.16 13.45 -20.37 9.05 -16.31 4.61 C-10.73 0.26 -6.78 0.04 0 0 Z M-7.69 14.78 C-9.37 18.01 -9.37 18.01 -8.81 25.25 C-2.87 25.25 3.07 25.25 9.19 25.25 C9.74 18.01 9.74 18.01 8.06 14.78 C5.42 12.62 3.57 12.72 0.19 12.75 C-0.86 12.74 -1.92 12.73 -3 12.72 C-5.84 13.02 -5.84 13.02 -7.69 14.78 Z " fill="#333334" transform="translate(511.8125,72.75)"/>
<path d="M0 0 C4.02 -0.08 8.04 -0.14 12.06 -0.19 C13.76 -0.23 13.76 -0.23 15.5 -0.26 C23 -0.33 28.38 -0.03 34.31 4.94 C37.45 8.77 38.25 11.55 38.23 16.5 C38.23 17.6 38.23 18.7 38.23 19.84 C38.22 21.02 38.21 22.2 38.2 23.42 C38.19 24.64 38.19 25.85 38.19 27.1 C38.18 30.99 38.15 34.87 38.12 38.75 C38.11 41.38 38.11 44.01 38.1 46.64 C38.08 53.1 38.04 59.55 38 66 C33.84 66.07 29.68 66.13 25.51 66.16 C24.1 66.18 22.68 66.2 21.27 66.23 C19.23 66.26 17.19 66.28 15.15 66.29 C13.31 66.32 13.31 66.32 11.44 66.34 C7.01 65.9 3.65 64.51 0.36 61.5 C-3.99 55.92 -4.21 51.97 -4.25 45.19 C-4.27 44.39 -4.29 43.6 -4.31 42.78 C-4.35 37.03 -3.52 32.77 0.5 28.36 C4.48 25.25 7.21 23.87 12.23 23.9 C13.43 23.91 13.43 23.91 14.66 23.91 C15.5 23.92 16.33 23.93 17.19 23.94 C18.03 23.94 18.88 23.95 19.75 23.95 C21.83 23.96 23.92 23.98 26 24 C25.72 22.52 25.42 21.04 25.12 19.56 C24.96 18.74 24.8 17.92 24.63 17.07 C24.42 16.38 24.22 15.7 24 15 C21.54 13.77 19.74 13.79 16.99 13.68 C16.01 13.64 15.02 13.6 14 13.56 C12.46 13.5 12.46 13.5 10.88 13.44 C9.83 13.39 8.79 13.35 7.72 13.31 C5.15 13.2 2.57 13.1 0 13 C0 8.71 0 4.42 0 0 Z M9 39 C8.68 41.83 8.68 41.83 8.75 45 C8.74 46.07 8.74 47.14 8.73 48.25 C8.72 51.14 8.72 51.14 11 53 C13.59 53.15 16.04 53.19 18.62 53.12 C21.06 53.08 23.49 53.04 26 53 C26 47.72 26 42.44 26 37 C22.35 36.94 22.35 36.94 18.62 36.88 C17.48 36.85 17.48 36.85 16.31 36.82 C12.2 36.65 12.2 36.65 9 39 Z " fill="#70B52B" transform="translate(440,178)"/>
<path d="M0 0 C4.29 0 8.58 0 13 0 C13 5.94 13 11.88 13 18 C16.96 18 20.92 18 25 18 C25 22.29 25 26.58 25 31 C21.04 31 17.08 31 13 31 C13.12 36.39 13.24 41.79 13.37 47.18 C13.42 49.02 13.46 50.85 13.5 52.69 C13.55 55.32 13.62 57.96 13.68 60.59 C13.7 61.42 13.72 62.24 13.73 63.09 C13.48 66.85 13.48 66.85 15 70 C17.33 70.37 19.66 70.7 22 71 C22 75.29 22 79.58 22 84 C15.29 84.42 10.5 84.07 5 80 C0.16 74.46 -0.7 69.41 -0.49 62.25 C-0.48 61.35 -0.47 60.45 -0.47 59.53 C-0.44 56.68 -0.38 53.84 -0.31 51 C-0.29 49.06 -0.26 47.12 -0.24 45.18 C-0.19 40.45 -0.1 35.73 0 31 C-1.98 31 -3.96 31 -6 31 C-6 26.71 -6 22.42 -6 18 C-4.02 18 -2.04 18 0 18 C0 12.06 0 6.12 0 0 Z " fill="#333334" transform="translate(401,55)"/>
<path d="M0 0 C1.08 0 2.15 0.01 3.26 0.01 C4.39 0.02 5.52 0.03 6.68 0.04 C7.82 0.04 8.95 0.04 10.12 0.05 C12.93 0.06 15.74 0.08 18.55 0.1 C18.55 4.39 18.55 8.68 18.55 13.1 C13.6 13.1 8.65 13.1 3.55 13.1 C3.55 30.59 3.55 48.08 3.55 66.1 C-0.74 66.1 -5.03 66.1 -9.45 66.1 C-9.49 58.21 -9.53 50.33 -9.55 42.44 C-9.56 38.78 -9.57 35.12 -9.6 31.46 C-9.62 27.93 -9.63 24.39 -9.64 20.86 C-9.64 18.86 -9.66 16.85 -9.67 14.85 C-9.67 13.63 -9.67 12.41 -9.67 11.15 C-9.68 10.08 -9.68 9 -9.69 7.89 C-9.44 5.08 -8.99 3.44 -7.45 1.1 C-4.84 -0.21 -2.92 -0.02 0 0 Z " fill="#333334" transform="translate(553.4453125,72.90234375)"/>
<path d="M0 0 C4.29 0 8.58 0 13 0 C13 21.78 13 43.56 13 66 C8.71 66 4.42 66 0 66 C0 44.22 0 22.44 0 0 Z " fill="#6FB52B" transform="translate(544,178)"/>
<path d="M0 0 C1.91 0.48 1.91 0.48 4.41 2.61 C6.15 5.96 6.46 7.76 5.91 11.48 C4.84 13.8 4.84 13.8 2.91 15.48 C-1.07 16.59 -3.18 16.9 -6.97 15.17 C-9.09 13.48 -9.09 13.48 -10.09 11.48 C-10.5 7.83 -10.31 5.9 -8.59 2.61 C-5.56 0.03 -3.89 -0.26 0 0 Z " fill="#70B52B" transform="translate(553.09375,152.515625)"/>
</svg>
