<svg height="267" width="572" xmlns="http://www.w3.org/2000/svg"><path d="m0 0c4.37 1.56 6.69 4.96 9.44 8.5.52.66 1.04 1.32 1.58 2 5.67 7.28 11.07 14.76 16.41 22.29 1.47 2.07 2.94 4.12 4.43 6.18 13.91 19.42 27.22 39.32 39.14 60.03.66 1.13.66 1.13 1.33 2.29 16.15 28.01 31.09 57.72 22.51 90.79-6.65 23.31-21.42 43.22-42.66 55.11-21.33 11.41-46.44 14.64-69.93 8.2-23.16-7.18-42.78-23.02-54.25-44.39-11.89-23.89-12.54-47.54-4.22-72.46 12.13-34.62 30.92-66.76 50.16-97.83l3.12-5.04c7.44-12.04 14.98-23.98 22.94-35.67zm-21 140c-4.37 5.85-7.3 11.38-7.12 18.81.01.98.03 1.95.05 2.96.02.74.05 1.47.07 2.23-.84-.48-.84-.48-1.7-.97-4.04-1.81-7.97-1.77-12.3-1.03-3.85 1.85-6.21 4.26-7.98 8.16-1.15 4.07-1.13 6.47.04 10.59 3.46 5.8 7.4 9.39 13.94 11.25 3.62.37 7.2.29 10.84.2 1.07-.01 2.15-.02 3.26-.04 2.37-.03 4.74-.06 7.1-.1 3.94-.06 7.88-.09 11.82-.1 6.36-.02 12.73-.07 19.09-.14 3.66-.04 7.31-.08 10.96-.09 3.62-.02 7.23-.05 10.85-.1 2-.02 4.01-.02 6.02-.02 6.87-.12 11.53-.38 17.06-4.61 5.96-6.43 5.41-13.24 5.28-21.53-.22-5.2-1.3-9.16-4.28-13.47-.44-.64-.87-1.28-1.32-1.95-3.41-4.44-7.24-7.54-12.68-9.05-6.25-.65-12.17-.59-18 2-.96-1.3-.96-1.3-1.94-2.62-5.64-6.75-13.06-10.83-21.81-11.63-11.19-.46-19.69 2.93-27.25 11.25z" fill="#a1c626" transform="translate(82)"/><path d="m0 0c12.55 27.18 19 51.53 8.68 80.74-9.32 23.3-26.9 40.34-49.67 50.43-21.34 8.75-47.1 8.69-68.47.1-13.66-5.87-25.19-14.61-35.09-25.66-.98-1.09-1.98-2.15-2.99-3.21-3.43-3.62-6.78-7.31-7.46-12.4 1.34-6.97 5.3-13.05 9-19 .51-.95 1.02-1.9 1.55-2.88 1.7-2.48 3.26-3.6 5.89-5.06.76-.44 1.52-.88 2.31-1.34 2.25-.72 2.25-.72 4.39-.01 1.86 1.29 1.86 1.29 4.24 3.79 5.61 5.35 12.09 4.75 19.39 4.64 1.09-.01 2.17-.02 3.29-.03 2.37-.02 4.75-.04 7.13-.07 3.94-.04 7.89-.06 11.83-.08 6.36-.02 12.73-.07 19.09-.14 3.66-.04 7.31-.08 10.96-.09 3.62-.02 7.23-.05 10.85-.1 2-.02 4.01-.02 6.02-.02 6.85-.12 11.57-.33 17.06-4.61 4.04-4.95 4.65-9.61 4.5-15.88-.01-.79-.02-1.59-.03-2.4-.2-5.94-1.08-10.73-4.47-15.72-.36-.57-.72-1.14-1.1-1.72-3.1-4.28-6.84-6.96-11.9-8.28-5.03-.32-9.97-.24-15 0 3.47-2.95 7.33-4.54 11.51-6.21.73-.3 1.46-.6 2.21-.9 2.32-.95 4.64-1.89 6.97-2.83 2.3-.93 4.6-1.87 6.9-2.8 1.48-.6 2.96-1.21 4.44-1.8 3.82-1.56 7.61-3.17 11.36-4.9 3.61-1.56 3.61-1.56 6.61-1.56z" fill="#67b22d" transform="translate(165 121)"/><path d="m0 0c-4.92 10.71-10.34 20.03-18 29-.86 1.01-.86 1.01-1.73 2.04-13.37 14.46-35.14 24.97-54.7 26.1-25.69.91-48.84-3.66-68.57-21.14-.33-.66-.66-1.32-1-2 .63.02 1.26.03 1.91.05 16.78.29 31.08-2.5 46.94-7.74 10.1-3.32 20.32-6.26 30.51-9.26 4.73-1.39 9.45-2.78 14.17-4.18 2.29-.68 4.58-1.35 6.87-2.03 5.84-1.73 11.67-3.46 17.51-5.2 2.93-.88 5.87-1.75 8.81-2.62 1.91-.57 3.83-1.14 5.74-1.72 1.11-.33 2.22-.65 3.36-.99.94-.28 1.88-.56 2.85-.85 2.33-.46 2.33-.46 5.33.54z" fill="#379835" transform="translate(174 201)"/><path d="m0 0h14c7.27 23.54 7.27 23.54 10.27 35.43.48 2.48.48 2.48 1.73 3.57l8-33h15c.41 1.8.82 3.59 1.24 5.44.55 2.38 1.09 4.75 1.64 7.12.26 1.18.53 2.37.81 3.58.4 1.73.4 1.73.8 3.49.24 1.05.48 2.1.73 3.19.84 3.42 1.79 6.8 2.78 10.18.36-1.15.72-2.29 1.09-3.47 1.32-4.24 2.65-8.48 3.98-12.71.58-1.84 1.15-3.67 1.73-5.51.82-2.63 1.65-5.27 2.48-7.9.38-1.24.38-1.24.78-2.5 1.83-5.8 1.83-5.8 2.94-6.91 2.19-.07 4.38-.08 6.56-.06 1.8.01 1.8.01 3.63.02.93.02 1.86.03 2.81.04-1.54 7.63-3.77 14.94-6.13 22.35-.4 1.25-.8 2.5-1.2 3.79-1.05 3.3-2.1 6.6-3.15 9.9-1.08 3.38-2.15 6.76-3.22 10.14-2.1 6.61-4.2 13.21-6.3 19.82-4.29 0-8.58 0-13 0-2.5-9.01-4.74-18.04-6.69-27.18-.82-4.02-.82-4.02-2.31-7.82-.24 1.02-.47 2.05-.72 3.11-.88 3.78-1.76 7.57-2.64 11.36-.39 1.64-.77 3.29-1.15 4.93-.54 2.35-1.09 4.71-1.64 7.06-.17.74-.34 1.48-.52 2.24-1.22 5.19-1.22 5.19-2.33 6.3-2.02.07-4.04.08-6.06.06-1.11-.01-2.21-.02-3.35-.02-.85-.02-1.71-.03-2.59-.04-2.74-6.96-4.89-14.05-7.01-21.21-.37-1.26-.75-2.51-1.13-3.8-.79-2.63-1.57-5.26-2.35-7.89-1-3.38-2.01-6.76-3.02-10.14-.96-3.22-1.92-6.45-2.88-9.67-.54-1.83-.54-1.83-1.1-3.69-.33-1.12-.66-2.23-1-3.38-.29-.99-.58-1.97-.88-2.99-.63-2.23-.63-2.23-.63-3.23z" fill="#333334" transform="translate(198 73)"/><path d="m0 0c32.58 0 32.58 0 37.96 4.72.47.59.93 1.17 1.42 1.78.48.59.96 1.18 1.46 1.78 2.8 4.14 2.36 8.69 2.4 13.48.01.87.01 1.73.02 2.62.02 1.83.03 3.67.04 5.5.01 1.86.03 3.73.06 5.59.04 2.7.06 5.4.07 8.1.01.83.03 1.65.05 2.5-.02 5.72-1.17 10.2-4.48 14.93-4.19 3.33-7.65 5.14-13.01 5.1-1.03-.01-1.03-.01-2.07-.01-.86-.01-1.72-.02-2.61-.03-2.74-.02-5.48-.04-8.31-.06v23c-4.29 0-8.58 0-13 0 0-29.37 0-58.74 0-89zm13 13c-.07 5.21-.13 10.43-.16 15.64-.02 1.78-.04 3.55-.07 5.33-.03 2.54-.05 5.09-.06 7.64-.02.8-.03 1.59-.05 2.41-.04 4.23-.04 4.23 1.7 7.98 2.4 1.47 4.34 1.4 7.14 1.38.96 0 1.92.01 2.91.02 2.54-.21 2.54-.21 4.23-1.45 2.08-2.98 1.79-6.06 1.76-9.57 0-.75 0-1.49.01-2.26 0-1.57-.01-3.14-.02-4.71-.01-2.4 0-4.8.02-7.21 0-1.52-.01-3.05-.01-4.58 0-.71.01-1.43.02-2.17-.04-2.77-.15-4.96-1.5-7.41-3.01-1.63-5.72-1.32-9.11-1.23-1.91.04-1.91.04-3.85.08-.98.04-1.95.07-2.96.11z" fill="#6fb52b" transform="translate(489 178)"/><g fill="#333334"><path d="m0 0h13v30c5.32-.12 5.32-.12 10.65-.27 4.87-.05 8.13.58 12.35 3.27 4.86 5.08 7.26 9.29 7.23 16.34v3.15c-.01 1.12-.02 2.23-.03 3.37-.01 1.15-.01 2.3-.01 3.48-.01 3.66-.04 7.31-.07 10.97-.01 2.48-.01 4.97-.02 7.45-.02 6.08-.06 12.16-.1 18.24-4.29 0-8.58 0-13 0-.33-17.16-.66-34.32-1-52-4.62 0-9.24 0-14 0-1.64 1.64-1.17 3.53-1.21 5.8-.02 1.02-.04 2.04-.06 3.09-.01 1.11-.03 2.22-.05 3.36-.02 1.13-.04 2.27-.06 3.43-.06 3.63-.12 7.25-.18 10.88-.05 2.45-.09 4.91-.13 7.36-.11 6.03-.21 12.05-.31 18.08-4.29 0-8.58 0-13 0 0-31.68 0-63.36 0-96z" transform="translate(437 43)"/><path d="m0 0c.79-.02 1.59-.04 2.41-.06 5.02-.04 8.43.53 12.78 3.31 6.1 6.24 7.23 11.6 7.18 20.06-.02 1.09-.04 2.19-.06 3.31-.04 3.51-.08 7.02-.12 10.63-9.9 0-19.8 0-30 0-.5 11.93-.5 11.93 3 15 2.33.36 2.33.36 4.93.31 1.32.03 1.32.03 2.66.05 2.44-.18 2.44-.18 4.16-1.63 1.56-1.94 1.56-1.94 2.25-5.73h13c-.29 7.1-.89 11.86-6 17-6.93 5.07-14.72 4.5-23 4-6.04-1.14-9.56-5.2-13-10-1.72-3.43-1.21-7.36-1.24-11.14-.01-.91-.02-1.82-.03-2.76-.01-1.94-.02-3.87-.03-5.81-.01-2.95-.06-5.9-.1-8.84-.01-1.88-.02-3.77-.03-5.65-.02-.88-.03-1.75-.05-2.65.02-5.91 1.07-9.3 4.48-14.15 5.43-5.03 9.78-5.21 16.81-5.25zm-7.81 15.25c-.25 2.44-.25 2.44-.13 5.13.04 1.6.08 3.21.13 4.87h17c.09-2.13.09-2.13.19-4.31.03-.8.06-1.6.1-2.43-.13-2.29-.13-2.29-1.43-4.03-2.67-1.76-4.75-1.59-7.93-1.54-1.06 0-2.12.01-3.22.01-2.86.03-2.86.03-4.71 2.3z" transform="translate(310.8125 72.75)"/><path d="m0 0c4.38-.08 8.75-.14 13.12-.19 1.24-.02 2.48-.05 3.76-.07 1.19-.01 2.39-.02 3.63-.03 1.1-.02 2.2-.03 3.33-.05 4.59.49 7.85 2.29 11.41 5.15 4.78 5.98 4.01 13.12 3.95 20.37-.01 1.17-.01 2.34-.01 3.54-.01 3.72-.04 7.44-.07 11.16-.01 2.52-.01 5.05-.02 7.57-.02 6.19-.06 12.37-.1 18.55-4 .07-8 .13-12.01.16-1.35.02-2.71.04-4.07.07-9.07.17-15.42.27-22.73-5.42-4.72-6.06-4.74-13.42-4.19-20.81.76-6.02 2.77-9.77 7-14 2.95-1.81 5.11-2.24 8.55-2.2 1.26.01 1.26.01 2.56.02.87.02 1.74.04 2.64.06 1.33.01 1.33.01 2.69.02 2.19.03 4.37.06 6.56.1-.66-3.3-1.32-6.6-2-10-7.92-.33-15.84-.66-24-1 0-4.29 0-8.58 0-13zm10 38c-1.15 2.3-1.23 3.81-1.31 6.38-.04.77-.08 1.54-.12 2.33.61 3.27 1.75 4.36 4.43 6.29 3.27.48 3.27.48 6.75.25 3.09-.12 3.09-.12 6.25-.25 0-5.61 0-11.22 0-17-1.9-.04-3.8-.08-5.75-.12-1.07-.03-2.13-.05-3.23-.08-2.97.2-4.57.56-7.02 2.2z" transform="translate(347 73)"/><path d="m0 0c.79-.02 1.59-.04 2.41-.06 6.57-.05 10.71 1.29 15.53 6 4.85 6.33 4.51 14.21 4.37 21.81-.04 3.14-.08 6.27-.12 9.5-10.23 0-20.46 0-31 0 .46 9.78.46 9.78 2 14 2.45 1.23 4.2 1.2 6.93 1.25 1.32.04 1.32.04 2.66.08 2.44-.14 2.44-.14 4.16-1.6 1.56-1.94 1.56-1.94 2.25-5.73h13c-1.75 13.23-1.75 13.23-6 17-7.09 4.96-14.6 4.53-23 4-5.18-1.12-8.59-4.01-12-8-1.68-2.85-2.26-4.92-2.28-8.21-.01-1.24-.01-1.24-.03-2.49 0-.88.01-1.76.01-2.67-.01-.91-.01-1.82-.02-2.76 0-1.93 0-3.86 0-5.79 0-2.94-.02-5.88-.04-8.82-.01-1.87-.01-3.75-.01-5.63 0-.87-.01-1.75-.02-2.65.04-5.78.83-10.18 4.89-14.62 5.58-4.35 9.53-4.57 16.31-4.61zm-7.69 14.78c-1.68 3.23-1.68 3.23-1.12 10.47h18c.55-7.24.55-7.24-1.13-10.47-2.64-2.16-4.49-2.06-7.87-2.03-1.05-.01-2.11-.02-3.19-.03-2.84.3-2.84.3-4.69 2.06z" transform="translate(511.8125 72.75)"/></g><path d="m0 0c4.02-.08 8.04-.14 12.06-.19 1.7-.04 1.7-.04 3.44-.07 7.5-.07 12.88.23 18.81 5.2 3.14 3.83 3.94 6.61 3.92 11.56v3.34c-.01 1.18-.02 2.36-.03 3.58s-.01 2.43-.01 3.68c-.01 3.89-.04 7.77-.07 11.65-.01 2.63-.01 5.26-.02 7.89-.02 6.46-.06 12.91-.1 19.36-4.16.07-8.32.13-12.49.16-1.41.02-2.83.04-4.24.07-2.04.03-4.08.05-6.12.06-1.84.03-1.84.03-3.71.05-4.43-.44-7.79-1.83-11.08-4.84-4.35-5.58-4.57-9.53-4.61-16.31-.02-.8-.04-1.59-.06-2.41-.04-5.75.79-10.01 4.81-14.42 3.98-3.11 6.71-4.49 11.73-4.46 1.2.01 1.2.01 2.43.01.84.01 1.67.02 2.53.03.84 0 1.69.01 2.56.01 2.08.01 4.17.03 6.25.05-.28-1.48-.58-2.96-.88-4.44-.16-.82-.32-1.64-.49-2.49-.21-.69-.41-1.37-.63-2.07-2.46-1.23-4.26-1.21-7.01-1.32-.98-.04-1.97-.08-2.99-.12-1.54-.06-1.54-.06-3.12-.12-1.05-.05-2.09-.09-3.16-.13-2.57-.11-5.15-.21-7.72-.31 0-4.29 0-8.58 0-13zm9 39c-.32 2.83-.32 2.83-.25 6-.01 1.07-.01 2.14-.02 3.25-.01 2.89-.01 2.89 2.27 4.75 2.59.15 5.04.19 7.62.12 2.44-.04 4.87-.08 7.38-.12 0-5.28 0-10.56 0-16-3.65-.06-3.65-.06-7.38-.12-1.14-.03-1.14-.03-2.31-.06-4.11-.17-4.11-.17-7.31 2.18z" fill="#70b52b" transform="translate(440 178)"/><path d="m0 0h13v18h12v13c-3.96 0-7.92 0-12 0 .12 5.39.24 10.79.37 16.18.05 1.84.09 3.67.13 5.51.05 2.63.12 5.27.18 7.9.02.83.04 1.65.05 2.5-.25 3.76-.25 3.76 1.27 6.91 2.33.37 4.66.7 7 1v13c-6.71.42-11.5.07-17-4-4.84-5.54-5.7-10.59-5.49-17.75.01-.9.02-1.8.02-2.72.03-2.85.09-5.69.16-8.53.02-1.94.05-3.88.07-5.82.05-4.73.14-9.45.24-14.18-1.98 0-3.96 0-6 0 0-4.29 0-8.58 0-13h6c0-5.94 0-11.88 0-18z" fill="#333334" transform="translate(401 55)"/><path d="m0 0c1.08 0 2.15.01 3.26.01 1.13.01 2.26.02 3.42.03 1.14 0 2.27 0 3.44.01 2.81.01 5.62.03 8.43.05v13c-4.95 0-9.9 0-15 0v53c-4.29 0-8.58 0-13 0-.04-7.89-.08-15.77-.1-23.66-.01-3.66-.02-7.32-.05-10.98-.02-3.53-.03-7.07-.04-10.6 0-2-.02-4.01-.03-6.01 0-1.22 0-2.44 0-3.7-.01-1.07-.01-2.15-.02-3.26.25-2.81.7-4.45 2.24-6.79 2.61-1.31 4.53-1.12 7.45-1.1z" fill="#333334" transform="translate(553.445313 72.902344)"/><path d="m0 0h13v66c-4.29 0-8.58 0-13 0 0-21.78 0-43.56 0-66z" fill="#6fb52b" transform="translate(544 178)"/><path d="m0 0c1.91.48 1.91.48 4.41 2.61 1.74 3.35 2.05 5.15 1.5 8.87-1.07 2.32-1.07 2.32-3 4-3.98 1.11-6.09 1.42-9.88-.31-2.12-1.69-2.12-1.69-3.12-3.69-.41-3.65-.22-5.58 1.5-8.87 3.03-2.58 4.7-2.87 8.59-2.61z" fill="#70b52b" transform="translate(553.09375 152.515625)"/></svg>